<?xml version="1.0" encoding="UTF-8" standalone="no"?>
<svg
   xmlns:dc="http://purl.org/dc/elements/1.1/"
   xmlns:cc="http://creativecommons.org/ns#"
   xmlns:rdf="http://www.w3.org/1999/02/22-rdf-syntax-ns#"
   xmlns:svg="http://www.w3.org/2000/svg"
   xmlns="http://www.w3.org/2000/svg"
   xmlns:sodipodi="http://sodipodi.sourceforge.net/DTD/sodipodi-0.dtd"
   xmlns:inkscape="http://www.inkscape.org/namespaces/inkscape"
   sodipodi:docname="idp.svg"
   inkscape:version="1.0 (4035a4f, 2020-05-01)"
   id="svg8"
   version="1.1"
   viewBox="0 0 132.29166 171.10938"
   height="171.10938mm"
   width="132.29166mm">
  <defs
     id="defs2" />
  <sodipodi:namedview
     inkscape:window-maximized="0"
     inkscape:window-y="25"
     inkscape:window-x="0"
     inkscape:window-height="943"
     inkscape:window-width="1252"
     fit-margin-bottom="0"
     fit-margin-right="0"
     fit-margin-left="0"
     fit-margin-top="0"
     showgrid="false"
     inkscape:document-rotation="0"
     inkscape:current-layer="layer1"
     inkscape:document-units="mm"
     inkscape:cy="333.18878"
     inkscape:cx="245.52379"
     inkscape:zoom="0.35"
     inkscape:pageshadow="2"
     inkscape:pageopacity="0.0"
     borderopacity="1.0"
     bordercolor="#666666"
     pagecolor="#ffffff"
     id="base" />
  <metadata
     id="metadata5">
    <rdf:RDF>
      <cc:Work
         rdf:about="">
        <dc:format>image/svg+xml</dc:format>
        <dc:type
           rdf:resource="http://purl.org/dc/dcmitype/StillImage" />
        <dc:title></dc:title>
      </cc:Work>
    </rdf:RDF>
  </metadata>
  <g
     transform="translate(-40.87183,-60.010468)"
     id="layer1"
     inkscape:groupmode="layer"
     inkscape:label="Layer 1">
    <g
       transform="translate(-0.75595286,0.75595267)"
       id="g4753">
      <path
         id="path4767"
         d="m 75.859636,229.68152 c -0.394773,-0.73764 -0.540601,-49.60281 -0.151056,-50.61794 0.183592,-0.47844 1.076642,-0.55899 6.261805,-0.56479 28.790265,-0.0323 46.240715,-4.91629 57.849375,-16.19097 6.44849,-6.26296 10.16432,-13.79077 11.75466,-23.81346 0.41883,-2.63955 0.51297,-5.10846 0.38335,-10.05416 -0.14764,-5.63301 -0.30405,-7.0519 -1.11149,-10.08326 -1.14289,-4.29067 -4.07741,-10.42088 -6.58609,-13.75833 C 133.50419,90.289221 112.429,82.204556 83.260472,81.198469 77.558144,81.001781 76.103924,80.85105 75.83709,80.429015 75.650477,80.13386 75.502886,75.561606 75.499848,69.98139 c -0.0046,-8.513663 0.07184,-9.986877 0.53848,-10.374159 0.422349,-0.350518 2.075138,-0.400099 7.396501,-0.221881 38.200201,1.279364 65.820731,13.370806 80.314071,35.159094 2.4814,3.73036 5.65773,10.431926 7.10623,14.993056 2.18287,6.87355 3.06431,12.7351 3.06431,20.37757 0,28.91276 -14.39815,51.04912 -40.32623,61.9993 -9.19711,3.88422 -19.3541,6.29673 -31.64043,7.51532 l -4.409723,0.43737 -0.09211,14.77601 c -0.06354,10.19236 -0.21373,14.92256 -0.484169,15.24842 -0.310974,0.3747 -2.49639,0.4724 -10.567003,0.4724 -9.698619,0 -10.192042,-0.032 -10.540138,-0.68237 z m -34.01573,-0.22324 c -0.326068,-0.84972 -0.248816,-135.021702 0.07804,-135.536627 0.220279,-0.347031 2.594655,-0.425562 10.666125,-0.352777 l 10.382768,0.09362 v 68.086114 68.08611 l -10.455404,0.0934 c -9.304007,0.0831 -10.479205,0.0314 -10.671527,-0.46983 z M 76.55278,167.34086 c -0.291041,-0.12649 -0.645798,-0.40462 -0.788349,-0.61806 -0.14255,-0.21344 -0.261613,-16.60893 -0.264583,-36.43441 -0.0048,-32.303671 0.05216,-36.103885 0.548965,-36.600692 0.457118,-0.457119 1.524613,-0.553811 6.085416,-0.551211 20.506071,0.01171 33.253581,2.766973 42.925491,9.278023 2.74268,1.84634 7.06535,6.19961 8.82268,8.88512 4.97441,7.60176 6.65882,18.17751 4.40086,27.63125 -0.91621,3.83601 -2.16079,6.71134 -4.37945,10.11773 -6.3827,9.79957 -17.94671,15.67961 -34.704486,17.64644 -4.71605,0.55351 -21.741803,1.03904 -22.646544,0.64581 z m 27.8239,-23.61408 c 4.543,-1.14443 8.05427,-2.94524 10.23157,-5.24741 2.3021,-2.43413 3.00729,-4.70052 2.80155,-9.00377 -0.25186,-5.26785 -2.20085,-8.11574 -7.23341,-10.56952 -2.52126,-1.22931 -7.43793,-2.60841 -10.78125,-3.02407 l -2.028472,-0.2522 v 14.71403 14.71404 l 1.852083,-0.24916 c 1.018649,-0.13704 3.339719,-0.62391 5.157929,-1.08194 z M 41.843906,80.233279 c -0.118868,-0.309763 -0.216123,-4.963474 -0.216123,-10.341577 0,-7.135028 0.114437,-9.892807 0.423333,-10.201703 0.49046,-0.49046 19.900214,-0.611812 20.660567,-0.129172 0.347031,0.22028 0.425563,2.594656 0.352777,10.666126 l -0.09362,10.382769 -10.455404,0.09338 c -9.304007,0.0831 -10.479205,0.03136 -10.671527,-0.469826 z"
         style="fill:#cfd89c;stroke-width:0.352778" />
      <path
         id="path4765"
         d="m 76.009457,229.57014 c -0.09262,-0.24254 -0.127328,-11.7916 -0.07712,-25.66459 l 0.09128,-25.22361 10.93611,-0.2218 c 16.008783,-0.32468 24.445843,-1.53822 34.287283,-4.93169 16.95836,-5.8475 26.62964,-16.39357 30.15265,-32.88004 1.055,-4.93703 1.14029,-15.50281 0.16144,-19.99841 -3.79754,-17.44109 -16.62618,-29.233552 -38.50033,-35.390639 -8.53464,-2.402307 -18.861687,-3.856479 -31.21632,-4.395625 l -5.820833,-0.254014 -0.0934,-10.469713 c -0.09053,-10.147373 -0.07202,-10.4765 0.601218,-10.690177 0.959121,-0.304413 15.261007,0.428205 20.745865,1.062712 34.66707,4.010405 58.51018,17.753375 69.75381,40.205506 6.12422,12.22932 8.08839,25.52231 5.96847,40.39306 -2.67556,18.76833 -12.09867,34.01023 -27.30235,44.16157 -11.63492,7.76852 -26.53044,12.38121 -45.949304,14.2291 l -2.38125,0.2266 v 14.58335 c 0,8.02084 -0.09636,14.83445 -0.214133,15.14136 -0.188545,0.49135 -1.454386,0.55802 -10.594403,0.55802 -7.979218,0 -10.419227,-0.102 -10.548675,-0.44097 z M 42.4985,229.22296 c -0.09337,-0.24562 -0.129043,-30.76782 -0.07927,-67.82713 l 0.0905,-67.380553 h 9.877777 9.877777 v 67.733333 67.73333 l -9.798507,0.0938 c -7.648803,0.0732 -9.835752,-0.004 -9.968274,-0.35277 z m 33.528165,-62.40341 c -0.10167,-0.26666 -0.143951,-16.83608 -0.09395,-36.82094 l 0.0909,-36.336111 10.230555,0.005 c 10.927813,0.0054 14.5081,0.30995 21.31531,1.813426 10.0842,2.227252 17.24889,5.962965 22.87967,11.929595 4.37657,4.63762 7.16013,10.35737 8.20342,16.85667 0.70107,4.36741 0.28028,12.0411 -0.87375,15.93412 -4.39154,14.81444 -16.67445,23.37421 -37.76632,26.31876 -1.55222,0.2167 -7.542443,0.48182 -13.311601,0.58915 -8.704833,0.16195 -10.520827,0.11266 -10.674233,-0.28968 z m 26.631665,-22.50858 c 7.52012,-1.66879 12.4111,-4.61416 14.00778,-8.43558 1.39171,-3.33081 1.27245,-8.71446 -0.25956,-11.71745 -1.99353,-3.90764 -7.5891,-6.83833 -15.68849,-8.21687 -1.552226,-0.2642 -2.941288,-0.41465 -3.086809,-0.33434 -0.145521,0.0803 -0.264583,6.72478 -0.264583,14.76548 v 14.61946 l 1.146528,-0.008 c 0.63059,-0.004 2.495904,-0.30708 4.145134,-0.67306 z M 42.333338,70.026388 V 59.972222 H 52.387504 62.44167 V 70.026388 80.080555 H 52.387504 42.333338 Z"
         style="fill:#90a2af;stroke-width:0.352778" />
      <path
         id="path4763"
         d="m 76.640975,229.77747 c -0.347042,-0.14003 -0.440972,-5.58214 -0.440972,-25.54853 v -25.37061 l 7.496527,-0.004 c 19.89514,-0.009 33.51425,-2.47284 44.89097,-8.12039 14.26803,-7.08285 22.22018,-18.9758 23.82894,-35.63771 2.17754,-22.55264 -9.32705,-39.353927 -32.95061,-48.120987 -9.69352,-3.597409 -22.149433,-5.687346 -38.067626,-6.387239 l -5.208742,-0.229017 0.09346,-10.281812 0.09346,-10.281812 5.997222,0.08032 c 23.149486,0.310034 44.481916,5.604135 59.780366,14.835783 7.36577,4.44478 15.31548,11.676823 19.86163,18.06862 2.83678,3.988456 6.86716,11.945284 8.35406,16.492704 2.35296,7.19609 3.39847,15.1467 3.07332,23.37118 -1.04305,26.38375 -13.63603,46.22617 -36.26379,57.13989 -10.0363,4.84067 -20.45738,7.5936 -34.566,9.1313 l -5.42292,0.59104 -0.09211,14.77982 c -0.06354,10.19515 -0.213727,14.92636 -0.48417,15.25222 -0.311002,0.37474 -2.370518,0.46664 -9.962052,0.44455 -5.263501,-0.0153 -9.768438,-0.10792 -10.010972,-0.20579 z M 42.4985,229.22296 c -0.09337,-0.24562 -0.129043,-30.76782 -0.07927,-67.82713 l 0.0905,-67.380553 h 9.877777 9.877777 v 67.733333 67.73333 l -9.798507,0.0938 c -7.648803,0.0732 -9.835752,-0.004 -9.968274,-0.35277 z M 76.200003,130.35222 V 93.759901 l 11.200693,0.178806 c 11.811306,0.188552 14.723364,0.482261 21.949364,2.21379 16.12418,3.863753 26.41851,13.696433 28.97173,27.672503 0.61403,3.36112 0.50991,10.57706 -0.20106,13.93472 -2.81215,13.28079 -12.7163,22.54361 -28.4391,26.59756 -6.9983,1.80444 -10.788881,2.20732 -22.633711,2.40563 l -10.847916,0.18162 z m 27.869447,13.89202 c 3.82803,-0.93752 8.29005,-3.00947 10.20322,-4.7379 0.82128,-0.74199 1.91748,-2.15289 2.43598,-3.13534 0.87019,-1.64881 0.94274,-2.11207 0.94274,-6.01961 0,-3.58923 -0.11553,-4.48327 -0.7593,-5.87598 -1.08201,-2.34082 -3.33414,-4.35771 -6.66767,-5.97123 -2.95634,-1.43096 -9.40847,-3.13666 -11.887613,-3.14265 l -1.322917,-0.003 v 15.04163 15.04162 l 2.028472,-0.23148 c 1.115658,-0.12731 3.377848,-0.56195 5.027088,-0.96586 z M 42.333338,70.026388 V 59.972222 H 52.387504 62.44167 V 70.026388 80.080555 H 52.387504 42.333338 Z"
         style="fill:#abbb51;stroke-width:0.352778" />
      <path
         id="path4761"
         d="m 76.640975,229.77747 c -0.347042,-0.14003 -0.440972,-5.58214 -0.440972,-25.54853 v -25.37061 l 7.496527,-0.004 c 19.89514,-0.009 33.51425,-2.47284 44.89097,-8.12039 14.26803,-7.08285 22.22018,-18.9758 23.82894,-35.63771 2.17754,-22.55264 -9.32705,-39.353927 -32.95061,-48.120987 -9.69352,-3.597409 -22.149433,-5.687346 -38.067626,-6.387239 l -5.208742,-0.229017 0.09346,-10.281812 0.09346,-10.281812 5.997222,0.08032 c 23.149486,0.310034 44.481916,5.604135 59.780366,14.835783 7.36577,4.44478 15.31548,11.676823 19.86163,18.06862 2.83678,3.988456 6.86716,11.945284 8.35406,16.492704 2.35296,7.19609 3.39847,15.1467 3.07332,23.37118 -1.04305,26.38375 -13.63603,46.22617 -36.26379,57.13989 -10.0363,4.84067 -20.45738,7.5936 -34.566,9.1313 l -5.42292,0.59104 -0.09211,14.77982 c -0.06354,10.19515 -0.213727,14.92636 -0.48417,15.25222 -0.311002,0.37474 -2.370518,0.46664 -9.962052,0.44455 -5.263501,-0.0153 -9.768438,-0.10792 -10.010972,-0.20579 z M 76.200003,130.35222 V 93.759901 l 11.200693,0.178806 c 11.811306,0.188552 14.723364,0.482261 21.949364,2.21379 16.12418,3.863753 26.41851,13.696433 28.97173,27.672503 0.61403,3.36112 0.50991,10.57706 -0.20106,13.93472 -2.81215,13.28079 -12.7163,22.54361 -28.4391,26.59756 -6.9983,1.80444 -10.788881,2.20732 -22.633711,2.40563 l -10.847916,0.18162 z m 27.869447,13.89202 c 3.82803,-0.93752 8.29005,-3.00947 10.20322,-4.7379 0.82128,-0.74199 1.91748,-2.15289 2.43598,-3.13534 0.87019,-1.64881 0.94274,-2.11207 0.94274,-6.01961 0,-3.58923 -0.11553,-4.48327 -0.7593,-5.87598 -1.08201,-2.34082 -3.33414,-4.35771 -6.66767,-5.97123 -2.95634,-1.43096 -9.40847,-3.13666 -11.887613,-3.14265 l -1.322917,-0.003 v 15.04163 15.04162 l 2.028472,-0.23148 c 1.115658,-0.12731 3.377848,-0.56195 5.027088,-0.96586 z"
         style="fill:#718999;stroke-width:0.352778" />
      <path
         id="path4759"
         d="m 76.362217,229.21736 c -0.09263,-0.24253 -0.127335,-11.63285 -0.07712,-25.31181 l 0.0913,-24.87083 11.288889,-0.22646 c 7.141343,-0.14326 12.890754,-0.43831 15.648884,-0.80306 28.25491,-3.73661 43.84865,-15.64367 48.44036,-36.98804 0.64758,-3.01026 0.7804,-4.78272 0.79926,-10.66577 0.0231,-7.20282 -0.14569,-8.62864 -1.6285,-13.75834 C 147.84818,105.948 139.48573,96.488066 127.86837,90.510201 115.64839,84.222247 100.11775,80.988129 79.022225,80.338428 l -2.645834,-0.08148 -0.09354,-10.102567 c -0.07307,-7.8919 0.0041,-10.139166 0.352778,-10.269823 0.760212,-0.284888 14.618041,0.390436 19.908413,0.970181 21.843278,2.393701 39.508018,8.718887 52.557698,18.819258 4.37128,3.38334 10.77366,10.150344 13.58214,14.35567 7.97672,11.944063 11.58592,25.929563 10.52673,40.790623 -0.96603,13.554 -4.21582,23.51724 -10.98145,33.66701 -3.17584,4.76438 -10.2449,11.96376 -15.12083,15.39959 -3.75613,2.64676 -11.23478,6.59478 -16.08859,8.49326 -8.20306,3.20846 -18.91203,5.54344 -30.09079,6.56097 -2.327282,0.21183 -3.777086,0.50343 -3.963342,0.79715 -0.16153,0.25471 -0.296125,7.09093 -0.299096,15.19159 l -0.0054,14.72847 H 86.595876 c -7.727184,0 -10.104363,-0.10243 -10.233659,-0.44097 z m 0.01947,-62.74467 c -0.102909,-0.26991 -0.146209,-16.68325 -0.09621,-36.47408 l 0.09091,-35.983333 6.879167,-0.107502 c 28.124426,-0.439501 45.064536,6.523735 52.184706,21.450555 2.4483,5.13266 2.96617,7.70026 2.9884,14.81667 0.0213,6.81382 -0.50592,9.70533 -2.61947,14.36664 -2.50068,5.51516 -7.50831,11.06318 -12.89904,14.29105 -5.68865,3.40625 -13.75532,5.98967 -22.36848,7.1637 -5.809522,0.79187 -23.903613,1.14858 -24.15997,0.4763 z M 101.6,144.93643 c 5.07699,-0.92334 8.99979,-2.49921 12.2328,-4.91416 1.37812,-1.02941 2.1116,-1.94428 2.99112,-3.73084 1.07198,-2.17751 1.16533,-2.63711 1.16612,-5.74102 0.002,-6.9905 -2.61155,-10.40211 -10.13826,-13.23516 -3.39679,-1.27854 -10.025464,-2.48478 -10.678124,-1.94312 -0.43302,0.35937 -0.512544,2.67919 -0.512544,14.9519 0,10.44653 0.113531,14.64006 0.404224,14.93075 0.399231,0.39923 0.708441,0.37752 4.534664,-0.31835 z"
         style="fill:#597487;stroke-width:0.352778" />
      <path
         id="path4757"
         d="m 76.55278,204.30861 v -24.99695 l 10.671527,-0.21195 c 6.039757,-0.11996 12.585481,-0.44737 15.081253,-0.75434 29.51012,-3.62963 46.05508,-16.45679 49.88882,-38.67836 C 156.30129,115.8621 145.67447,97.35706 122.35334,87.703254 115.70491,84.951128 105.43822,82.439432 96.308335,81.33147 92.186867,80.831308 81.429227,80.097213 78.052086,80.085677 l -1.499306,-0.0051 V 70.026388 59.972222 h 2.306691 c 4.174055,0 14.348071,0.71879 20.189739,1.426397 36.75777,4.452508 61.62911,20.988926 70.56662,46.918251 5.90745,17.13852 4.29946,38.60968 -4.06758,54.31368 -4.92145,9.23701 -12.84461,17.64103 -21.98149,23.31556 -10.94863,6.79974 -25.19046,11.09617 -42.31954,12.76685 l -4.409719,0.43009 -0.09198,15.08125 -0.09198,15.08125 H 86.603158 76.55278 Z m 0,-73.95404 V 94.111025 l 10.847916,0.18101 c 11.146225,0.185988 15.001504,0.553177 21.156734,2.015042 17.94806,4.262653 28.35738,14.948563 29.69369,30.482683 0.91903,10.6833 -1.88442,19.28015 -8.55213,26.2254 -6.51829,6.78961 -14.82154,10.50468 -28.27538,12.65108 -2.387972,0.38097 -6.975684,0.62243 -14.199303,0.74735 l -10.671527,0.18453 z m 26.63472,14.46453 c 6.94618,-1.56038 12.10304,-4.72672 14.01358,-8.6044 0.70043,-1.42162 0.80309,-2.17113 0.80309,-5.86331 0,-3.91508 -0.0737,-4.38346 -0.98065,-6.23025 -0.53935,-1.0983 -1.60696,-2.56275 -2.37245,-3.25433 -3.05911,-2.76372 -10.6756,-5.53137 -15.508163,-5.63529 l -2.305406,-0.0496 -0.09213,14.81656 c -0.05068,8.14911 -0.01598,15.01505 0.07712,15.25764 0.252155,0.6571 2.041197,0.53426 6.365009,-0.43704 z"
         style="fill:#284b63;stroke-width:0.352778" />
      <path
         id="path4755"
         d="m 76.905558,204.44039 v -24.8765 l 6.967361,-0.005 c 27.380921,-0.0215 45.537151,-5.30715 56.919071,-16.57047 6.24954,-6.18442 10.01348,-13.73832 11.82611,-23.73395 0.82558,-4.55264 0.83665,-13.86369 0.0214,-17.97247 C 149.24979,104.19858 137.29453,92.096307 117.33886,85.546854 107.24891,82.235329 97.223832,80.653702 81.403474,79.877436 l -4.497916,-0.220705 v -9.665865 -9.665867 l 2.38125,0.0016 c 1.309687,9.17e-4 5.000625,0.160153 8.202083,0.353892 31.227399,1.889751 53.335119,10.27789 68.405849,25.954635 8.35048,8.686264 13.75575,19.333574 15.97338,31.464364 1.01542,5.55453 1.10476,17.3464 0.17589,23.21708 -3.24904,20.53479 -13.77285,35.94175 -31.36774,45.92268 -10.45618,5.9314 -25.22234,10.01779 -40.57243,11.228 -1.696012,0.13371 -3.242064,0.43398 -3.435669,0.66726 -0.218461,0.26323 -0.386947,6.03337 -0.444115,15.20938 l -0.09211,14.78526 -9.613194,0.0939 -9.613194,0.0939 z m 0,-74.04783 V 94.544444 h 8.581785 c 9.712747,0 14.35103,0.364574 20.698767,1.626951 16.8786,3.356656 27.45448,11.959075 30.8824,25.119735 1.3939,5.35155 1.37102,12.7098 -0.0567,18.21939 -3.15359,12.17009 -13.36287,20.86438 -28.8072,24.5324 -6.07606,1.44306 -10.038584,1.82679 -20.803954,2.01463 l -10.495138,0.18314 z m 27.724792,14.42351 c 6.44107,-1.63391 11.20347,-4.7566 12.91368,-8.46746 0.70555,-1.53092 0.81291,-2.32302 0.81291,-5.99722 0,-3.70396 -0.10507,-4.46582 -0.84024,-6.09251 -1.06956,-2.36659 -3.74471,-4.83176 -6.92486,-6.38134 -3.15346,-1.53657 -8.51403,-2.91324 -11.637672,-2.98871 l -2.469445,-0.0597 -0.09207,15.16944 c -0.05064,8.34319 -0.0077,15.38947 0.09553,15.65838 0.252119,0.6571 3.599767,0.31136 8.142167,-0.84092 z"
         style="fill:#153b56;stroke-width:0.352778" />
    </g>
  </g>
</svg>
